<svg width="31" height="31" viewBox="0 0 31 31" fill="none" xmlns="http://www.w3.org/2000/svg">
<ellipse cx="15.6238" cy="15.5" rx="15.3333" ry="15.5" fill="#1C1C28" fill-opacity="0.88"/>
<path d="M12.84 20.6661C12.84 20.7414 12.762 20.8017 12.6637 20.8017C12.5518 20.813 12.4738 20.7527 12.4738 20.6661C12.4738 20.5908 12.5518 20.5305 12.6501 20.5305C12.7518 20.5192 12.84 20.5795 12.84 20.6661ZM11.7855 20.4966C11.7618 20.572 11.8296 20.6586 11.9313 20.6812C12.0195 20.7188 12.1212 20.6812 12.1415 20.6059C12.1619 20.5305 12.0974 20.4439 11.9957 20.41C11.9076 20.3836 11.8092 20.4213 11.7855 20.4966ZM13.2841 20.4326C13.1858 20.459 13.118 20.5305 13.1282 20.6172C13.1383 20.6925 13.2265 20.7414 13.3282 20.7151C13.4265 20.6887 13.4944 20.6172 13.4842 20.5418C13.474 20.4703 13.3825 20.4213 13.2841 20.4326ZM15.5151 6C10.8124 6 7.21503 9.96595 7.21503 15.1899C7.21503 19.3667 9.58164 22.941 12.962 24.1989C13.396 24.2856 13.5486 23.988 13.5486 23.7432C13.5486 23.5097 13.5384 22.2216 13.5384 21.4307C13.5384 21.4307 11.165 21.9956 10.6666 20.3083C10.6666 20.3083 10.2801 19.2123 9.72405 18.9298C9.72405 18.9298 8.94761 18.3385 9.77829 18.3498C9.77829 18.3498 10.6225 18.4251 11.0871 19.3215C11.8296 20.7753 13.0739 20.3573 13.5588 20.1087C13.6368 19.5061 13.8571 19.088 14.1013 18.8394C12.2059 18.6059 10.2937 18.3009 10.2937 14.6776C10.2937 13.6419 10.5513 13.1221 11.0938 12.4593C11.0057 12.2145 10.7175 11.2051 11.182 9.90192C11.8906 9.65711 13.5215 10.9188 13.5215 10.9188C14.1996 10.7079 14.9286 10.5987 15.6508 10.5987C16.3729 10.5987 17.1019 10.7079 17.78 10.9188C17.78 10.9188 19.4109 9.65335 20.1195 9.90192C20.584 11.2088 20.2958 12.2145 20.2077 12.4593C20.7502 13.1259 21.0824 13.6457 21.0824 14.6776C21.0824 18.3122 19.0854 18.6022 17.1901 18.8394C17.502 19.137 17.7665 19.7019 17.7665 20.587C17.7665 21.8563 17.7563 23.4268 17.7563 23.7357C17.7563 23.9805 17.9123 24.278 18.3429 24.1914C21.7334 22.941 24.0322 19.3667 24.0322 15.1899C24.0322 9.96595 20.2178 6 15.5151 6ZM10.5107 18.9901C10.4666 19.0278 10.4768 19.1144 10.5344 19.1859C10.5886 19.2462 10.6666 19.2726 10.7107 19.2236C10.7548 19.1859 10.7446 19.0993 10.687 19.0278C10.6327 18.9675 10.5547 18.9411 10.5107 18.9901ZM10.1445 18.685C10.1207 18.734 10.1546 18.7942 10.2225 18.8319C10.2767 18.8696 10.3445 18.8583 10.3683 18.8055C10.392 18.7566 10.3581 18.6963 10.2903 18.6587C10.2225 18.6361 10.1682 18.6474 10.1445 18.685ZM11.243 20.0258C11.1888 20.0748 11.2091 20.1878 11.2871 20.2594C11.3651 20.346 11.4634 20.3573 11.5075 20.297C11.5516 20.2481 11.5312 20.1351 11.4634 20.0635C11.3888 19.9769 11.2871 19.9656 11.243 20.0258ZM10.8565 19.4722C10.8022 19.5099 10.8022 19.6078 10.8565 19.6944C10.9107 19.781 11.0023 19.8187 11.0464 19.781C11.1006 19.7321 11.1006 19.6341 11.0464 19.5475C10.9989 19.4609 10.9107 19.4232 10.8565 19.4722Z" fill="#A8A8A8"/>
</svg>
