<svg width="32" height="31" viewBox="0 0 32 31" fill="none" xmlns="http://www.w3.org/2000/svg">
<ellipse cx="16.0106" cy="15.5" rx="15.3333" ry="15.5" fill="#1C1C28" fill-opacity="0.88"/>
<path d="M12.9021 22H9.82573V11.9853H12.9021V22ZM11.3623 10.6192C10.3785 10.6192 9.58063 9.79549 9.58063 8.80104C9.58063 8.32338 9.76834 7.86528 10.1025 7.52751C10.4366 7.18975 10.8897 7 11.3623 7C11.8348 7 12.288 7.18975 12.6221 7.52751C12.9562 7.86528 13.1439 8.32338 13.1439 8.80104C13.1439 9.79549 12.3457 10.6192 11.3623 10.6192ZM24.416 22H21.3463V17.1249C21.3463 15.963 21.3231 14.473 19.7468 14.473C18.1473 14.473 17.9022 15.7354 17.9022 17.0412V22H14.8292V11.9853H17.7797V13.3514H17.8227C18.2334 12.5645 19.2367 11.7341 20.7335 11.7341C23.847 11.7341 24.4193 13.8067 24.4193 16.4988V22H24.416Z" fill="#A8A8A8"/>
</svg>
