<svg width="533" height="418" viewBox="0 0 533 418" fill="none" xmlns="http://www.w3.org/2000/svg">
<path d="M485.169 381.59C474.952 392.517 463.244 401.952 450.392 409.617C450.097 409.798 449.797 409.968 449.496 410.143L428.689 391.748C428.908 391.545 429.15 391.317 429.41 391.067C444.914 376.362 521.88 273.548 527.009 248.512C526.655 250.597 531.637 332.395 485.169 381.59Z" fill="#F0F0F0"/>
<path d="M454.406 413.166C454.013 413.26 453.613 413.347 453.211 413.427L437.601 399.627C437.906 399.521 438.263 399.394 438.67 399.254C445.368 396.885 465.316 389.734 485.168 381.589C506.499 372.833 527.727 362.94 532.293 356.603C531.314 358.075 501.145 402.726 454.406 413.166Z" fill="#F0F0F0"/>
<path d="M484.881 109.473H482.658V48.6428C482.658 44.0194 481.746 39.4412 479.975 35.1697C478.204 30.8982 475.607 27.017 472.334 23.7478C469.061 20.4785 465.176 17.8852 460.9 16.1159C456.623 14.3466 452.04 13.4359 447.411 13.4359H318.389C313.76 13.4359 309.177 14.3465 304.901 16.1158C300.624 17.8851 296.739 20.4785 293.466 23.7477C290.193 27.017 287.597 30.8981 285.825 35.1696C284.054 39.4411 283.142 44.0193 283.142 48.6427V382.362C283.142 386.986 284.054 391.564 285.825 395.835C287.597 400.107 290.193 403.988 293.466 407.257C296.739 410.526 300.624 413.12 304.901 414.889C309.177 416.658 313.76 417.569 318.389 417.569H447.411C452.04 417.569 456.623 416.658 460.899 414.889C465.176 413.12 469.061 410.526 472.334 407.257C475.607 403.988 478.203 400.107 479.975 395.835C481.746 391.564 482.658 386.986 482.658 382.362V152.773H484.881V109.473Z" fill="#3F3D56"/>
<path d="M475.155 48.8846V382.118C475.155 385.571 474.474 388.99 473.151 392.18C471.828 395.37 469.888 398.268 467.444 400.709C464.999 403.15 462.097 405.086 458.903 406.407C455.709 407.727 452.286 408.406 448.829 408.405H319.186C315.73 408.405 312.308 407.725 309.115 406.404C305.922 405.083 303.021 403.147 300.577 400.706C298.133 398.265 296.195 395.367 294.872 392.178C293.55 388.989 292.869 385.57 292.869 382.118V48.8846C292.869 45.4325 293.55 42.0142 294.872 38.8248C296.195 35.6354 298.133 32.7375 300.577 30.2965C303.021 27.8555 305.922 25.9193 309.115 24.5983C312.308 23.2774 315.73 22.5976 319.186 22.5979H334.919C334.146 24.4947 333.853 26.552 334.063 28.5888C334.273 30.6256 334.982 32.5795 336.126 34.2788C337.269 35.9781 338.814 37.3705 340.623 38.3338C342.432 39.297 344.45 39.8015 346.5 39.8029H420.413C422.464 39.8048 424.484 39.3025 426.295 38.3401C428.106 37.3778 429.652 35.9851 430.796 34.2848C431.941 32.5846 432.649 30.6291 432.858 28.591C433.067 26.5528 432.77 24.4946 431.995 22.5979H448.829C452.286 22.5966 455.709 23.2757 458.903 24.5961C462.097 25.9166 464.999 27.8527 467.444 30.2937C469.888 32.7348 471.828 35.6331 473.151 38.8229C474.474 42.0128 475.155 45.4318 475.155 48.8846Z" fill="white"/>
<path d="M434.828 222.051H320.875C318.879 222.048 316.965 221.255 315.554 219.846C314.143 218.436 313.349 216.525 313.347 214.531V210.788C313.349 208.794 314.143 206.883 315.554 205.473C316.965 204.063 318.879 203.27 320.875 203.268H434.828C436.823 203.27 438.737 204.063 440.148 205.473C441.56 206.883 442.354 208.794 442.356 210.788V214.531C442.354 216.525 441.56 218.436 440.148 219.846C438.737 221.255 436.823 222.048 434.828 222.051Z" fill="#F0F0F0"/>
<path d="M434.828 254.316H320.875C318.879 254.314 316.965 253.521 315.554 252.111C314.143 250.701 313.349 248.79 313.347 246.796V243.053C313.349 241.059 314.143 239.148 315.554 237.738C316.965 236.329 318.879 235.536 320.875 235.533H434.828C436.823 235.536 438.737 236.329 440.148 237.738C441.56 239.148 442.354 241.059 442.356 243.053V246.796C442.354 248.79 441.56 250.701 440.148 252.111C438.737 253.521 436.823 254.314 434.828 254.316Z" fill="#F0F0F0"/>
<path d="M440.528 214.835H326.575C324.479 214.832 322.47 214 320.988 212.519C319.506 211.039 318.673 209.032 318.671 206.939V203.196C318.673 201.102 319.506 199.096 320.988 197.615C322.47 196.135 324.479 195.302 326.575 195.3H440.528C442.624 195.302 444.633 196.135 446.115 197.615C447.596 199.096 448.43 201.102 448.432 203.196V206.939C448.43 209.032 447.596 211.039 446.115 212.519C444.633 214 442.624 214.832 440.528 214.835ZM326.575 196.804C324.879 196.806 323.252 197.48 322.053 198.678C320.853 199.876 320.178 201.501 320.176 203.196V206.939C320.178 208.633 320.853 210.258 322.053 211.456C323.252 212.655 324.879 213.329 326.575 213.331H440.528C442.224 213.329 443.851 212.655 445.05 211.456C446.25 210.258 446.925 208.633 446.927 206.939V203.196C446.925 201.501 446.25 199.876 445.05 198.678C443.851 197.48 442.224 196.806 440.528 196.804H326.575Z" fill="#3F3D56"/>
<path d="M440.528 247.1H326.575C324.479 247.097 322.47 246.265 320.988 244.785C319.506 243.304 318.673 241.297 318.671 239.204V235.461C318.673 233.368 319.506 231.361 320.988 229.881C322.47 228.4 324.479 227.568 326.575 227.565H440.528C442.624 227.568 444.633 228.4 446.115 229.881C447.596 231.361 448.43 233.368 448.432 235.461V239.204C448.43 241.297 447.596 243.304 446.115 244.785C444.633 246.265 442.624 247.097 440.528 247.1ZM326.575 229.069C324.879 229.071 323.252 229.745 322.053 230.943C320.853 232.142 320.178 233.766 320.176 235.461V239.204C320.178 240.899 320.853 242.523 322.053 243.722C323.252 244.92 324.879 245.594 326.575 245.596H440.528C442.224 245.594 443.851 244.92 445.05 243.722C446.25 242.523 446.925 240.899 446.927 239.204V235.461C446.925 233.766 446.25 232.142 445.05 230.943C443.851 229.745 442.224 229.071 440.528 229.069H326.575Z" fill="#3F3D56"/>
<path d="M475.155 48.8846V121.368C463.625 124.398 451.552 124.745 439.867 122.384C428.181 120.022 417.193 115.014 407.749 107.746C398.304 100.477 390.655 91.1413 385.39 80.4565C380.124 69.7717 377.383 58.0228 377.376 46.1136C377.376 43.9879 377.462 41.8843 377.633 39.8029H420.413C422.464 39.8048 424.484 39.3025 426.295 38.3401C428.106 37.3778 429.652 35.9851 430.796 34.2848C431.941 32.5846 432.649 30.6291 432.858 28.591C433.067 26.5528 432.77 24.4946 431.995 22.5979H448.829C452.286 22.5966 455.709 23.2757 458.903 24.5961C462.097 25.9166 464.999 27.8527 467.444 30.2937C469.888 32.7348 471.828 35.6331 473.151 38.8229C474.474 42.0128 475.155 45.4318 475.155 48.8846Z" fill="#F0F0F0"/>
<path d="M358.375 403.878C358.375 405.406 358.318 406.915 358.195 408.405H319.186C315.73 408.405 312.308 407.725 309.115 406.404C305.922 405.084 303.021 403.147 300.577 400.706C298.133 398.265 296.195 395.367 294.872 392.178C293.55 388.989 292.869 385.57 292.869 382.118V346.475C301.046 345.412 309.356 346.103 317.244 348.501C325.133 350.899 332.419 354.949 338.618 360.38C344.816 365.812 349.784 372.501 353.191 380.002C356.598 387.502 358.365 395.642 358.375 403.878H358.375Z" fill="#6C63FF"/>
<path d="M43.7552 341.337C44.8513 341.818 46.0939 341.846 47.2104 341.414C48.3268 340.981 49.226 340.124 49.7108 339.031L84.8521 259.476C85.6564 257.655 85.9022 255.637 85.5583 253.677C85.2145 251.717 84.2964 249.903 82.9202 248.464C81.5441 247.025 79.7717 246.026 77.8271 245.594C75.8826 245.161 73.8533 245.314 71.9958 246.034H71.9958C69.8498 246.852 68.0541 248.388 66.9141 250.38C66.7328 250.695 66.5683 251.02 66.4214 251.352L31.2801 330.907C31.0406 331.449 30.9103 332.033 30.8968 332.626C30.8832 333.218 30.9866 333.807 31.201 334.36C31.4154 334.912 31.7367 335.417 32.1465 335.845C32.5563 336.274 33.0465 336.617 33.5893 336.857L43.7552 341.337Z" fill="#6C63FF"/>
<path d="M83.4095 292.137L48.6502 284.421L57.2535 261.687C58.7191 256.131 62.1299 251.283 66.8673 248.023C71.6046 244.763 77.3547 243.307 83.0746 243.919L83.4095 243.956L83.4095 292.137Z" fill="#2F2E41"/>
<path d="M153.618 342.475C152.595 342.473 151.595 342.175 150.739 341.618C149.882 341.061 149.205 340.267 148.791 339.334L113.649 259.779C112.532 257.248 112.428 254.385 113.359 251.78C114.29 249.174 116.186 247.024 118.655 245.772C121.125 244.52 123.981 244.261 126.636 245.049C129.291 245.836 131.543 247.61 132.929 250.006V250.005C133.124 250.344 133.3 250.692 133.458 251.049L168.599 330.604C169.163 331.881 169.196 333.33 168.691 334.632C168.186 335.933 167.184 336.981 165.905 337.545L155.394 342.177L155.389 342.165C154.821 342.37 154.222 342.474 153.618 342.475Z" fill="#6C63FF"/>
<path d="M105.008 315.156C103.811 315.157 102.662 315.633 101.816 316.479C100.969 317.325 100.493 318.472 100.491 319.668V412.172C100.493 413.368 100.969 414.515 101.816 415.361C102.662 416.207 103.811 416.682 105.008 416.684H116.119C117.317 416.682 118.465 416.207 119.312 415.361C120.159 414.515 120.635 413.368 120.636 412.172V319.668C120.635 318.472 120.159 317.325 119.312 316.479C118.465 315.633 117.317 315.157 116.119 315.156H105.008Z" fill="#6C63FF"/>
<path d="M83.0314 315.156C81.8338 315.157 80.6857 315.633 79.8389 316.479C78.9921 317.325 78.5157 318.472 78.5144 319.668V412.172C78.5157 413.368 78.9921 414.515 79.8389 415.361C80.6857 416.207 81.8338 416.682 83.0314 416.684H94.1428C95.3404 416.682 96.4885 416.207 97.3353 415.361C98.1821 414.515 98.6585 413.368 98.6598 412.172V319.668C98.6585 318.472 98.1822 317.325 97.3353 316.479C96.4885 315.633 95.3404 315.157 94.1428 315.156H83.0314Z" fill="#6C63FF"/>
<path d="M99.2435 218.242C120.448 218.242 137.638 201.072 137.638 179.891C137.638 158.711 120.448 141.54 99.2435 141.54C78.039 141.54 60.8494 158.711 60.8494 179.891C60.8494 201.072 78.039 218.242 99.2435 218.242Z" fill="#6C63FF"/>
<path d="M112.02 195.99C114.509 195.921 117.606 195.835 119.993 194.094C120.703 193.554 121.287 192.866 121.703 192.077C122.119 191.288 122.358 190.418 122.402 189.527C122.445 188.894 122.341 188.26 122.098 187.674C121.855 187.088 121.48 186.566 121.001 186.148C119.755 185.096 117.935 184.85 115.974 185.425L118.006 170.592L116.514 170.388L114.125 187.826L115.371 187.255C116.815 186.594 118.797 186.257 120.029 187.297C120.332 187.569 120.568 187.907 120.718 188.284C120.869 188.662 120.93 189.069 120.897 189.474C120.861 190.137 120.682 190.784 120.372 191.372C120.063 191.959 119.631 192.473 119.104 192.879C117.248 194.234 114.779 194.409 111.978 194.487L112.02 195.99Z" fill="#2F2E41"/>
<path d="M133.492 171.871H125.383V173.375H133.492V171.871Z" fill="#2F2E41"/>
<path d="M107.896 171.871H99.7868V173.375H107.896V171.871Z" fill="#2F2E41"/>
<path d="M137.286 342.942L123.468 242.177C123.319 241.096 122.784 240.106 121.962 239.389C121.139 238.672 120.084 238.277 118.992 238.277H108.561C108.605 238.029 108.628 237.777 108.629 237.525V233.765C108.629 232.569 108.153 231.421 107.306 230.575C106.459 229.729 105.31 229.254 104.112 229.254H95.0782C93.8803 229.254 92.7314 229.729 91.8843 230.575C91.0372 231.421 90.5613 232.569 90.5613 233.765V237.525C90.5629 237.777 90.5855 238.029 90.6289 238.277H80.1982C79.1064 238.277 78.0515 238.672 77.2288 239.389C76.406 240.106 75.871 241.096 75.7228 242.177L61.9039 342.942C61.8164 343.58 61.8667 344.23 62.0515 344.847C62.2363 345.464 62.5512 346.035 62.9752 346.52C63.3992 347.006 63.9223 347.395 64.5094 347.661C65.0966 347.928 65.734 348.066 66.379 348.066H132.811C133.456 348.066 134.094 347.928 134.681 347.661C135.268 347.395 135.791 347.006 136.215 346.52C136.639 346.035 136.954 345.464 137.139 344.847C137.324 344.23 137.374 343.58 137.286 342.942Z" fill="#2F2E41"/>
<path d="M115.781 292.137V243.956L116.116 243.919C121.843 243.308 127.599 244.768 132.34 248.036C137.08 251.303 140.49 256.161 141.949 261.726L150.54 284.421L115.781 292.137Z" fill="#2F2E41"/>
<path d="M97.3101 219.439L70.7538 209.143C66.4113 207.459 62.0446 205.827 57.7251 204.085C55.8748 203.441 54.1704 202.438 52.7101 201.133C51.4387 199.788 50.5722 198.113 50.2099 196.3C49.2888 192.411 49.4553 188.16 49.521 184.191C49.572 179.85 49.9297 175.518 50.5914 171.227C51.7511 163.163 54.4745 155.403 58.6092 148.381C66.0566 136.175 78.8881 126.992 93.6478 127.725C100.481 128.064 107.353 130.514 112.43 135.18C112.96 135.812 113.554 136.388 114.203 136.897C114.654 137.066 115.146 137.099 115.615 136.991C116.235 136.951 116.855 136.921 117.475 136.9C119.629 136.809 121.786 136.9 123.924 137.17C127.82 137.591 131.513 139.122 134.561 141.582C137.099 143.762 139.163 146.84 139.375 150.26C139.478 151.83 139.218 153.403 138.616 154.857C138.013 156.31 137.085 157.607 135.902 158.645C132.733 161.312 128.213 160.375 124.412 160.174L110.49 159.437L103.436 159.064C101.983 158.987 101.988 161.243 103.436 161.32L122.185 162.312C125.198 162.471 128.303 162.862 131.318 162.681C133.635 162.577 135.848 161.688 137.592 160.161C139.185 158.699 140.371 156.85 141.036 154.794C141.7 152.738 141.82 150.545 141.384 148.429C140.417 143.814 136.978 139.996 132.947 137.724C127.462 134.634 120.911 134.338 114.773 134.795L115.572 135.125C108.629 127.682 97.9943 124.539 88.0106 125.639C77.4693 126.8 68.0938 132.674 61.3575 140.707C53.847 149.662 49.7542 160.829 48.1631 172.312C47.3351 178.512 47.0625 184.773 47.3486 191.021C47.3368 193.777 47.8087 196.513 48.743 199.106C49.8089 201.629 51.7363 203.693 54.1822 204.931C56.9865 206.283 59.8694 207.466 62.8155 208.473L72.5994 212.266L91.8177 219.718L96.7097 221.614C98.0654 222.14 98.6527 219.959 97.3101 219.439Z" fill="#2F2E41"/>
<path d="M55.555 142.776C53.2471 142.776 50.991 142.093 49.0721 140.812C47.1532 139.531 45.6576 137.711 44.7744 135.581C43.8912 133.451 43.6601 131.108 44.1104 128.847C44.5606 126.586 45.672 124.509 47.3039 122.879C48.9358 121.249 51.015 120.139 53.2785 119.689C55.542 119.239 57.8882 119.47 60.0204 120.352C62.1526 121.234 63.975 122.728 65.2572 124.645C66.5394 126.562 67.2237 128.815 67.2237 131.121C67.2203 134.211 65.9898 137.173 63.8022 139.358C61.6146 141.544 58.6487 142.773 55.555 142.776ZM55.555 121.721C53.6938 121.721 51.8744 122.272 50.3269 123.305C48.7793 124.338 47.5732 125.806 46.861 127.523C46.1487 129.241 45.9624 131.131 46.3255 132.954C46.6886 134.778 47.5848 136.453 48.9009 137.767C50.2169 139.082 51.8937 139.977 53.7191 140.34C55.5445 140.702 57.4366 140.516 59.1561 139.805C60.8756 139.093 62.3453 137.889 63.3794 136.343C64.4134 134.797 64.9653 132.98 64.9653 131.121C64.9625 128.628 63.9701 126.239 62.206 124.477C60.4418 122.715 58.0499 121.724 55.555 121.721Z" fill="#2F2E41"/>
<path d="M250.615 215.007L225.358 195.712L206.042 220.94L231.298 240.235L250.615 215.007Z" fill="#F0F0F0"/>
<path d="M107.876 42.763C111.867 42.7599 115.803 43.6902 119.369 45.4795C122.935 47.2687 126.031 49.8672 128.411 53.0668L143.159 33.8058L98.9089 0L65.0652 44.2005L84.1369 58.7707C86.0455 54.0426 89.3254 49.9923 93.5554 47.14C97.7855 44.2876 102.773 42.7634 107.876 42.763Z" fill="#F0F0F0"/>
<path d="M532.247 418H0.752825C0.553163 418 0.361679 417.921 0.220497 417.78C0.0793147 417.639 0 417.448 0 417.248C0 417.049 0.0793147 416.857 0.220497 416.716C0.361679 416.575 0.553163 416.496 0.752825 416.496H532.247C532.447 416.496 532.638 416.575 532.779 416.716C532.921 416.857 533 417.049 533 417.248C533 417.448 532.921 417.639 532.779 417.78C532.638 417.921 532.447 418 532.247 418Z" fill="#3F3D56"/>
<path d="M402.526 293.224H348.426C346.431 293.222 344.517 292.429 343.106 291.019C341.694 289.609 340.9 287.698 340.898 285.704V281.961C340.9 279.967 341.694 278.056 343.106 276.646C344.517 275.237 346.431 274.444 348.426 274.441H402.526C404.522 274.444 406.435 275.237 407.847 276.646C409.258 278.056 410.052 279.967 410.054 281.961V285.704C410.052 287.698 409.258 289.609 407.847 291.019C406.435 292.429 404.522 293.222 402.526 293.224Z" fill="#6C63FF"/>
<path d="M408.226 286.008H354.127C352.031 286.006 350.022 285.173 348.54 283.693C347.058 282.213 346.224 280.206 346.222 278.112V274.369C346.224 272.276 347.058 270.269 348.54 268.789C350.022 267.309 352.031 266.476 354.127 266.474H408.226C410.322 266.476 412.331 267.309 413.813 268.789C415.295 270.269 416.129 272.276 416.131 274.369V278.112C416.129 280.206 415.295 282.213 413.813 283.693C412.331 285.173 410.322 286.006 408.226 286.008ZM354.127 267.977C352.43 267.979 350.804 268.653 349.604 269.852C348.404 271.05 347.73 272.675 347.728 274.369V278.112C347.73 279.807 348.404 281.432 349.604 282.63C350.804 283.828 352.43 284.502 354.127 284.504H408.226C409.923 284.502 411.549 283.828 412.749 282.63C413.949 281.432 414.623 279.807 414.625 278.112V274.369C414.623 272.675 413.949 271.05 412.749 269.852C411.549 268.653 409.923 267.979 408.226 267.977H354.127Z" fill="#3F3D56"/>
</svg>
