<svg width="28" height="28" viewBox="0 0 28 28" fill="none" xmlns="http://www.w3.org/2000/svg">
<path d="M13.5001 26.8001C10.2389 26.7964 7.11224 25.4995 4.8061 23.1936C2.49997 20.8876 1.20259 17.7612 1.19865 14.5C1.12406 12.8648 1.39123 11.232 1.98306 9.70578C2.57488 8.17961 3.47835 6.79359 4.63588 5.63618C5.7934 4.47877 7.17951 3.57541 8.70574 2.98374C10.232 2.39207 11.8649 2.12511 13.5001 2.19987C16.7611 2.2038 19.8873 3.50096 22.1932 5.80683C24.499 8.11269 25.7962 11.239 25.8002 14.5C25.856 16.1303 25.576 17.7547 24.9776 19.2723C24.3793 20.7899 23.4753 22.1682 22.3218 23.3217C21.1683 24.4752 19.7899 25.3792 18.2724 25.9776C16.7548 26.576 15.1304 26.8559 13.5001 26.8001ZM13.5001 3.43197C12.0287 3.36439 10.5594 3.60442 9.18601 4.13675C7.81265 4.66907 6.56538 5.48199 5.52393 6.52356C4.48248 7.56512 3.66975 8.81248 3.13757 10.1859C2.6054 11.5593 2.36547 13.0286 2.43321 14.5C2.43649 17.4341 3.60356 20.247 5.67827 22.3217C7.75298 24.3964 10.566 25.5634 13.5001 25.5667C14.9673 25.6183 16.4294 25.3674 17.7954 24.8295C19.1614 24.2916 20.4021 23.4782 21.4402 22.4401C22.4784 21.402 23.2916 20.1614 23.8295 18.7953C24.3674 17.4293 24.6184 15.9672 24.5668 14.5C24.5639 11.5657 23.397 8.75238 21.3222 6.6774C19.2475 4.60243 16.4344 3.43525 13.5001 3.43197Z" fill="#818098"/>
<path d="M13.5001 28C9.92059 27.997 6.48866 26.5738 3.95756 24.0427C1.42646 21.5116 0.0030747 18.0795 0.000120359 14.4999C-0.012911 12.6484 0.323583 10.8111 0.991825 9.08435C1.61546 7.47262 2.56881 6.00888 3.79081 4.78687C5.01282 3.56486 6.47652 2.61152 8.08825 1.98788C9.81504 1.31973 11.6524 0.983311 13.5039 0.996254C15.2985 0.961859 17.0821 1.28563 18.7501 1.94862C20.4181 2.61161 21.937 3.6005 23.2183 4.8575C24.4997 6.11449 25.5175 7.61436 26.2124 9.26936C26.9072 10.9244 27.265 12.7013 27.265 14.4962C27.265 16.2912 26.9072 18.0681 26.2124 19.7231C25.5175 21.3781 24.4997 22.878 23.2183 24.135C21.937 25.392 20.4181 26.3809 18.7501 27.0439C17.0821 27.7069 15.2985 28.0306 13.5039 27.9962L13.5001 28ZM13.5001 4.63185C12.12 4.61915 10.75 4.86687 9.46172 5.36197C8.30238 5.80874 7.24954 6.49344 6.371 7.37198C5.49246 8.25052 4.80773 9.3034 4.36096 10.4627C3.8658 11.751 3.61812 13.1211 3.63087 14.5012C3.63383 17.1175 4.67444 19.6258 6.52443 21.4757C8.37442 23.3257 10.8826 24.3663 13.4989 24.3693C14.8647 24.3788 16.2197 24.1263 17.4904 23.6256C18.6525 23.167 19.708 22.4745 20.5914 21.5911C21.4748 20.7077 22.1672 19.6522 22.6258 18.4901C23.1267 17.2194 23.3791 15.8645 23.3695 14.4987C23.3662 11.8825 22.3253 9.37429 20.475 7.52454C18.6248 5.67478 16.1164 4.63447 13.5001 4.63185Z" fill="#D0D0DD"/>
<path d="M18.7805 8.89593C16.5989 12.0741 14.1322 15.3627 12.915 19.0603C11.6035 17.4947 10.3701 15.866 9.05742 14.3017C8.53557 13.7005 7.66546 14.5706 8.18979 15.1693C9.73924 17.0038 11.1647 18.9475 12.7427 20.7659C12.8192 20.8406 12.9136 20.8942 13.017 20.9215C13.1203 20.9489 13.229 20.949 13.3325 20.922C13.4359 20.8949 13.5305 20.8415 13.6073 20.767C13.684 20.6926 13.7401 20.5995 13.7702 20.4969C14.7817 16.4337 17.5335 12.8922 19.8577 9.50825C20.2977 8.86492 19.223 8.24764 18.7805 8.89593Z" fill="#818098"/>
<path d="M19.2913 7.42087C19.6332 7.42065 19.969 7.51267 20.263 7.68718C20.5571 7.8617 20.7986 8.11228 20.9622 8.41254C21.1092 8.69059 21.176 9.00395 21.1555 9.31777C21.1349 9.63159 21.0277 9.93356 20.8457 10.1901C20.5371 10.6388 20.2185 11.0949 19.9099 11.5362C17.8683 14.4554 15.7574 17.4749 14.9318 20.792V20.8031C14.8226 21.1911 14.5895 21.5327 14.2682 21.776C13.9468 22.0192 13.5548 22.1508 13.1518 22.1505C12.9024 22.1516 12.6557 22.0989 12.4285 21.996C12.2013 21.8931 11.999 21.7424 11.8353 21.5543C10.9565 20.5428 10.1173 19.483 9.30539 18.4554C8.64719 17.6237 7.96669 16.7634 7.2775 15.9478C7.04681 15.6842 6.89755 15.3594 6.84762 15.0127C6.79768 14.666 6.84929 14.3122 6.99621 13.9942C7.13833 13.6724 7.36976 13.3979 7.66304 13.2035C7.95633 13.0091 8.29913 12.9028 8.65096 12.8972C8.90167 12.8989 9.14904 12.9552 9.37575 13.0622C9.60246 13.1693 9.80302 13.3245 9.9636 13.517L9.97722 13.5331C10.6429 14.3277 11.2949 15.1446 11.9258 15.9367L12.5456 16.7126C13.8024 14.1273 15.2963 11.664 17.008 9.35458C17.267 8.98271 17.536 8.59474 17.7951 8.21791C17.9594 7.97201 18.1821 7.77056 18.4432 7.6315C18.7042 7.49244 18.9955 7.42007 19.2913 7.42087Z" fill="#3E7BFA"/>
</svg>
