<svg width="538" height="443" viewBox="0 0 538 443" fill="none" xmlns="http://www.w3.org/2000/svg">
<g clip-path="url(#clip0_278_45)" filter="url(#filter0_d_278_45)">
<path d="M134.819 396.629L135.897 419.356L135.897 419.357C136.079 423.199 134.728 426.955 132.141 429.8C129.554 432.644 125.944 434.345 122.103 434.527L121.633 434.55L119.868 397.339L134.819 396.629Z" fill="#2F2E41"/>
<path d="M457.877 358.222C447.055 379.346 433.328 399.775 415.96 418.265C415.574 418.683 415.185 419.09 414.792 419.504L373.642 400.019C373.894 399.601 374.17 399.132 374.466 398.618C392.143 368.368 498.847 183.842 495.475 142.05C495.868 145.496 508.515 259.487 457.877 358.222Z" fill="#E6E6E6"/>
<path d="M423.899 422.024C423.323 422.352 422.732 422.672 422.138 422.982L391.268 408.365C391.7 408.059 392.202 407.697 392.78 407.29C402.238 400.498 430.36 380.122 457.877 358.222C487.449 334.689 516.327 309.403 520.616 297.333C519.745 300.101 492.678 384.232 423.899 422.024Z" fill="#E6E6E6"/>
<path d="M55.3504 433.642C81.6615 433.642 102.991 412.308 102.991 385.992C102.991 359.676 81.6615 338.343 55.3504 338.343C29.0393 338.343 7.70996 359.676 7.70996 385.992C7.70996 412.308 29.0393 433.642 55.3504 433.642Z" fill="#6C63FF"/>
<path d="M74.4334 365.997H36.2671C34.5806 365.998 32.9637 366.669 31.7712 367.862C30.5787 369.055 29.9079 370.672 29.906 372.359V399.626C29.9079 401.313 30.5787 402.93 31.7712 404.122C32.9637 405.315 34.5806 405.986 36.2671 405.988H74.4335C76.12 405.986 77.7368 405.315 78.9294 404.123C80.1219 402.93 80.7927 401.313 80.7946 399.626V372.359C80.7927 370.672 80.1219 369.055 78.9293 367.862C77.7368 366.669 76.1199 365.998 74.4334 365.997ZM74.4334 369.632C74.6613 369.633 74.8881 369.663 75.1086 369.72L55.3547 385.481L35.7162 369.688C35.8975 369.651 36.082 369.632 36.267 369.632H74.4334ZM74.4334 402.352H36.2671C35.5443 402.352 34.8514 402.064 34.3403 401.553C33.8292 401.042 33.5417 400.349 33.5409 399.626V372.604L54.2115 389.227C54.5334 389.486 54.9338 389.627 55.3468 389.628C55.7598 389.629 56.1608 389.489 56.4836 389.231L77.1597 372.734V399.626C77.1588 400.349 76.8714 401.042 76.3603 401.553C75.8492 402.064 75.1562 402.352 74.4334 402.352Z" fill="white"/>
<path d="M239.206 317.198L249.865 317.286C250.944 317.295 252.012 317.068 252.994 316.622C253.976 316.176 254.849 315.521 255.552 314.703C256.255 313.884 256.771 312.923 257.064 311.884C257.357 310.846 257.42 309.756 257.249 308.691C257.065 307.545 256.614 306.458 255.933 305.517C255.252 304.577 254.36 303.81 253.328 303.277C252.297 302.745 251.154 302.462 249.994 302.451C248.833 302.441 247.686 302.703 246.645 303.217L236.592 308.178L202.21 315.847L187.48 300.784L179.019 314.722L198.896 330.082L239.206 317.198Z" fill="#FFB8B8"/>
<path d="M237.208 427.352L224.649 429.767C216.071 402.721 206.776 377.108 206.777 357.298C194.637 370.812 179.582 378.543 161.854 380.971L163.787 351.017L178.278 343.287L200.456 333.049C202.398 332.153 204.493 331.635 206.628 331.522C210.781 331.304 214.867 332.629 218.1 335.243C221.334 337.857 223.486 341.576 224.143 345.682L237.208 427.352Z" fill="#2F2E41"/>
<path d="M177.07 377.348L172.064 381.153C169.912 382.789 167.369 383.834 164.689 384.183C162.008 384.533 159.282 384.175 156.783 383.146C142.446 372.397 132.26 375.568 123.028 391.792C111.956 379.292 109.224 361.24 119.106 342.563L173.93 343.771L185.04 340.389L177.07 377.348Z" fill="#2F2E41"/>
<path d="M158.812 433.324C155.67 434.291 152.289 434.121 149.26 432.845C146.231 431.568 143.747 429.266 142.245 426.343C137.318 422.002 133.161 415.788 129.555 408.231C126.968 402.687 124.747 396.98 122.905 391.146C120.41 383.439 124.582 375.019 132.347 372.713C132.577 372.644 132.811 372.58 133.048 372.519C143.413 369.857 154.058 375.837 157.601 385.937L167.904 415.306C168.513 417.041 168.774 418.879 168.672 420.715C168.571 422.551 168.109 424.349 167.312 426.006C166.516 427.663 165.401 429.147 164.032 430.374C162.662 431.6 161.064 432.545 159.33 433.153C159.158 433.213 158.986 433.27 158.812 433.324Z" fill="#2F2E41"/>
<path opacity="0.2" d="M127.801 404.886C127.801 404.886 139.876 418.414 142.292 426.144L127.801 404.886Z" fill="black"/>
<path d="M80.9656 341.044L76.924 350.91C76.5151 351.909 76.3288 352.984 76.3781 354.062C76.4274 355.14 76.7112 356.194 77.2096 357.15C77.708 358.107 78.4091 358.944 79.264 359.601C80.1188 360.259 81.1069 360.723 82.1592 360.96C83.2918 361.214 84.4684 361.2 85.5942 360.917C86.7201 360.634 87.7638 360.09 88.6414 359.33C89.519 358.57 90.2059 357.615 90.647 356.541C91.088 355.467 91.2707 354.304 91.1806 353.146L90.3098 341.968L95.9645 307.192L115.419 299.109L105.624 286.074L83.982 298.826L80.9656 341.044Z" fill="#FFB8B8"/>
<path d="M177.553 342.563C163.674 365.88 136.007 374.908 112.309 356.65C116.478 342.951 129.937 305.089 121.242 303.64C102.781 311.383 102.755 293.203 99.3015 284.104L141.326 268.644L164.028 274.925L168.682 276.576C171.711 277.651 174.338 279.628 176.209 282.241C178.081 284.854 179.108 287.977 179.152 291.191C169.616 304.971 162.556 319.671 177.553 342.563Z" fill="#6C63FF"/>
<path d="M182.866 323.721L166.202 309.952L171.757 277.823L194.459 301.98L182.866 323.721Z" fill="#6C63FF"/>
<path d="M459.386 103.01H457.004V37.7623C457.004 27.7471 453.026 18.1422 445.946 11.0603C438.865 3.97852 429.262 0 419.249 0H281.04C271.026 0 261.423 3.97852 254.343 11.0603C247.262 18.1422 243.285 27.7471 243.285 37.7623V395.715C243.285 405.73 247.262 415.335 254.343 422.417C261.423 429.499 271.026 433.477 281.04 433.477H419.248C429.261 433.477 438.865 429.499 445.945 422.417C453.025 415.335 457.003 405.73 457.003 395.715V149.454H459.385L459.386 103.01Z" fill="#3F3D56"/>
<path d="M420.772 9.8235H402.731C403.561 11.8581 403.878 14.0656 403.654 16.2516C403.43 18.4376 402.672 20.535 401.447 22.3588C400.221 24.1827 398.566 25.6772 396.627 26.7105C394.688 27.7438 392.525 28.2842 390.328 28.2842H311.15C308.953 28.284 306.79 27.7435 304.852 26.7102C302.913 25.677 301.258 24.1827 300.033 22.3591C298.808 20.5355 298.049 18.4384 297.825 16.2527C297.601 14.067 297.918 11.8597 298.748 9.82529H281.895C274.417 9.82529 267.245 12.7965 261.957 18.0853C256.669 23.3741 253.699 30.5472 253.699 38.0267V395.452C253.699 402.932 256.669 410.105 261.957 415.393C267.245 420.682 274.417 423.653 281.895 423.653H420.767C428.245 423.653 435.416 420.682 440.704 415.393C445.992 410.105 448.963 402.932 448.963 395.452V395.452V38.0249C448.963 30.5454 445.992 23.3723 440.704 18.0835C435.416 12.7947 428.245 9.82349 420.767 9.82349H420.772L420.772 9.8235Z" fill="white"/>
<path d="M351.572 403.679C360.123 403.679 367.055 396.746 367.055 388.193C367.055 379.641 360.123 372.707 351.572 372.707C343.021 372.707 336.089 379.641 336.089 388.193C336.089 396.746 343.021 403.679 351.572 403.679Z" fill="#E6E6E6"/>
<path d="M288.76 244.978C287.297 244.978 286.106 246.337 286.106 248.008C286.106 249.679 287.297 251.039 288.76 251.039H413.901C415.365 251.039 416.556 249.679 416.556 248.008C416.556 246.337 415.365 244.978 413.901 244.978H288.76Z" fill="#E6E6E6"/>
<path d="M288.76 316.452C287.297 316.452 286.106 317.812 286.106 319.483C286.106 321.153 287.297 322.513 288.76 322.513H413.901C415.365 322.513 416.556 321.153 416.556 319.483C416.556 317.812 415.365 316.452 413.901 316.452H288.76Z" fill="#E6E6E6"/>
<path d="M288.76 263.16C287.297 263.16 286.106 264.52 286.106 266.191C286.106 267.862 287.297 269.221 288.76 269.221H342.609C344.072 269.221 345.263 267.862 345.263 266.191C345.263 264.52 344.072 263.16 342.609 263.16H288.76Z" fill="#E6E6E6"/>
<path d="M288.76 280.492C287.297 280.492 286.106 281.852 286.106 283.522C286.106 285.193 287.297 286.553 288.76 286.553H413.901C415.365 286.553 416.556 285.193 416.556 283.522C416.556 281.852 415.365 280.492 413.901 280.492H288.76Z" fill="#E6E6E6"/>
<path d="M288.76 298.675C287.297 298.675 286.106 300.034 286.106 301.705C286.106 303.376 287.297 304.736 288.76 304.736H342.609C344.072 304.736 345.263 303.376 345.263 301.705C345.263 300.034 344.072 298.675 342.609 298.675H288.76Z" fill="#E6E6E6"/>
<path d="M312.385 106.99H390.285C391.145 106.991 391.97 107.333 392.579 107.942C393.187 108.55 393.53 109.375 393.531 110.236V191.382C393.53 192.242 393.187 193.067 392.579 193.676C391.97 194.285 391.145 194.627 390.285 194.628H312.385C311.524 194.627 310.699 194.285 310.09 193.676C309.482 193.067 309.14 192.242 309.139 191.382V110.236C309.14 109.375 309.482 108.55 310.09 107.942C310.699 107.333 311.524 106.991 312.385 106.99Z" fill="#6C63FF"/>
<path d="M373.686 177.894C373.975 177.895 374.262 177.838 374.53 177.728C374.798 177.618 375.041 177.455 375.247 177.251C375.452 177.046 375.614 176.803 375.725 176.536C375.837 176.268 375.894 175.981 375.894 175.691C375.894 175.402 375.837 175.115 375.726 174.847C375.615 174.579 375.453 174.336 375.248 174.131C375.043 173.926 374.8 173.764 374.532 173.653C374.265 173.543 373.978 173.486 373.688 173.486H328.984C328.694 173.486 328.407 173.542 328.139 173.653C327.871 173.763 327.628 173.925 327.423 174.13C327.218 174.334 327.055 174.577 326.944 174.845C326.833 175.113 326.776 175.399 326.775 175.689C326.775 175.979 326.832 176.266 326.943 176.534C327.054 176.801 327.216 177.044 327.421 177.249C327.626 177.454 327.869 177.616 328.137 177.727C328.405 177.838 328.692 177.895 328.981 177.894H373.686Z" fill="white"/>
<path d="M373.686 164.908C374.27 164.908 374.831 164.676 375.244 164.263C375.657 163.85 375.889 163.289 375.889 162.704C375.889 162.12 375.657 161.559 375.244 161.146C374.831 160.733 374.27 160.5 373.686 160.5H328.983C328.399 160.5 327.838 160.732 327.425 161.145C327.012 161.558 326.779 162.119 326.779 162.703C326.779 163.288 327.01 163.849 327.423 164.262C327.837 164.676 328.397 164.908 328.981 164.908H373.686Z" fill="white"/>
<path d="M351.334 123.723C354.078 123.723 356.76 124.537 359.041 126.061C361.322 127.586 363.1 129.753 364.149 132.288C365.199 134.823 365.474 137.612 364.939 140.303C364.404 142.995 363.083 145.467 361.143 147.407C359.203 149.347 356.731 150.668 354.041 151.204C351.35 151.739 348.561 151.464 346.026 150.414C343.492 149.364 341.325 147.586 339.801 145.305C338.277 143.023 337.464 140.341 337.464 137.597C337.468 133.919 338.931 130.392 341.531 127.791C344.131 125.19 347.657 123.727 351.334 123.723Z" fill="white"/>
<path d="M174.353 264.438H133.174C132.327 264.437 131.515 264.1 130.916 263.501C130.317 262.902 129.98 262.089 129.979 261.242V243.489C129.979 237.18 132.485 231.129 136.945 226.668C141.406 222.206 147.455 219.7 153.763 219.7C160.071 219.7 166.121 222.206 170.581 226.668C175.042 231.129 177.548 237.18 177.548 243.489V261.242C177.547 262.089 177.21 262.902 176.611 263.501C176.012 264.1 175.2 264.437 174.353 264.438Z" fill="#2F2E41"/>
<path d="M173.611 254.293C178.23 245.841 175.124 235.243 166.674 230.623C158.223 226.003 147.628 229.109 143.009 237.561C138.389 246.013 141.495 256.611 149.945 261.231C158.396 265.851 168.991 262.745 173.611 254.293Z" fill="#FFB6B6"/>
<path d="M183.174 245.264H157.994L157.736 241.649L156.445 245.264H152.568L152.056 238.098L149.498 245.264H141.995V244.909C142.001 239.92 143.985 235.137 147.512 231.609C151.039 228.081 155.822 226.097 160.81 226.091H164.36C169.348 226.097 174.13 228.081 177.658 231.609C181.185 235.137 183.169 239.92 183.174 244.909V245.264Z" fill="#2F2E41"/>
<path d="M157.789 267.752C157.599 267.751 157.41 267.735 157.223 267.702L138.785 264.448V233.97H159.082L158.579 234.556C151.588 242.711 156.855 255.935 160.617 263.092C160.894 263.616 161.018 264.208 160.974 264.799C160.929 265.39 160.719 265.957 160.367 266.434C160.072 266.842 159.684 267.174 159.236 267.403C158.788 267.632 158.292 267.752 157.789 267.752Z" fill="#2F2E41"/>
<path d="M219.176 418.23L241.924 418.229H241.925C245.769 418.229 249.457 419.757 252.175 422.476C254.894 425.195 256.421 428.883 256.422 432.728V433.2L219.176 433.201L219.176 418.23Z" fill="#2F2E41"/>
<path d="M533.404 434.676H4.59551C4.43757 434.676 4.2861 434.614 4.17442 434.502C4.06274 434.39 4 434.239 4 434.081C4 433.923 4.06274 433.771 4.17442 433.66C4.2861 433.548 4.43757 433.485 4.59551 433.485H533.404C533.562 433.485 533.714 433.548 533.826 433.66C533.937 433.771 534 433.923 534 434.081C534 434.239 533.937 434.39 533.826 434.502C533.714 434.614 533.562 434.676 533.404 434.676Z" fill="#CACACA"/>
</g>
<defs>
<filter id="filter0_d_278_45" x="0" y="0" width="538" height="442.676" filterUnits="userSpaceOnUse" color-interpolation-filters="sRGB">
<feFlood flood-opacity="0" result="BackgroundImageFix"/>
<feColorMatrix in="SourceAlpha" type="matrix" values="0 0 0 0 0 0 0 0 0 0 0 0 0 0 0 0 0 0 127 0" result="hardAlpha"/>
<feOffset dy="4"/>
<feGaussianBlur stdDeviation="2"/>
<feComposite in2="hardAlpha" operator="out"/>
<feColorMatrix type="matrix" values="0 0 0 0 0 0 0 0 0 0 0 0 0 0 0 0 0 0 0.25 0"/>
<feBlend mode="normal" in2="BackgroundImageFix" result="effect1_dropShadow_278_45"/>
<feBlend mode="normal" in="SourceGraphic" in2="effect1_dropShadow_278_45" result="shape"/>
</filter>
<clipPath id="clip0_278_45">
<rect width="530" height="434.676" fill="white" transform="translate(4)"/>
</clipPath>
</defs>
</svg>
