<svg width="143" height="27" viewBox="0 0 143 27" fill="none" xmlns="http://www.w3.org/2000/svg">
<g clip-path="url(#clip0_60_44)">
<path d="M13.5001 25.8001C10.2389 25.7965 7.11222 24.4995 4.80609 22.1936C2.49995 19.8877 1.20257 16.7612 1.19863 13.5C1.12404 11.8648 1.39122 10.232 1.98304 8.70583C2.57487 7.17965 3.47833 5.79363 4.63586 4.63623C5.79338 3.47882 7.17949 2.57546 8.70572 1.98379C10.232 1.39212 11.8649 1.12515 13.5001 1.19991C16.7611 1.20385 19.8873 2.50101 22.1932 4.80687C24.499 7.11274 25.7962 10.239 25.8002 13.5C25.856 15.1304 25.576 16.7547 24.9776 18.2723C24.3792 19.7899 23.4753 21.1683 22.3218 22.3218C21.1683 23.4753 19.7899 24.3793 18.2723 24.9776C16.7548 25.576 15.1304 25.8559 13.5001 25.8001ZM13.5001 2.43201C12.0287 2.36444 10.5593 2.60447 9.18599 3.13679C7.81263 3.66912 6.56537 4.48203 5.52391 5.5236C4.48246 6.56517 3.66973 7.81252 3.13756 9.18594C2.60539 10.5594 2.36545 12.0287 2.4332 13.5C2.43648 16.4341 3.60355 19.2471 5.67825 21.3218C7.75296 23.3965 10.566 24.5635 13.5001 24.5667C14.9673 24.6184 16.4294 24.3674 17.7954 23.8295C19.1614 23.2916 20.4021 22.4783 21.4402 21.4402C22.4783 20.4021 23.2916 19.1614 23.8295 17.7954C24.3673 16.4294 24.6184 14.9672 24.5668 13.5C24.5638 10.5657 23.3969 7.75242 21.3222 5.67745C19.2475 3.60247 16.4344 2.4353 13.5001 2.43201Z" fill="#818098"/>
<path d="M13.5001 27C9.92059 26.997 6.48866 25.5738 3.95756 23.0427C1.42646 20.5116 0.0030747 17.0795 0.000120359 13.4999C-0.012911 11.6484 0.323583 9.81111 0.991825 8.08435C1.61546 6.47262 2.56881 5.00888 3.79081 3.78687C5.01282 2.56486 6.47652 1.61152 8.08825 0.987883C9.81504 0.319726 11.6524 -0.0166885 13.5039 -0.0037463C15.2985 -0.0381407 17.0821 0.285625 18.7501 0.948617C20.4181 1.61161 21.937 2.6005 23.2183 3.8575C24.4997 5.11449 25.5175 6.61436 26.2124 8.26936C26.9072 9.92437 27.265 11.7013 27.265 13.4962C27.265 15.2912 26.9072 17.0681 26.2124 18.7231C25.5175 20.3781 24.4997 21.878 23.2183 23.135C21.937 24.392 20.4181 25.3809 18.7501 26.0439C17.0821 26.7069 15.2985 27.0306 13.5039 26.9962L13.5001 27ZM13.5001 3.63185C12.12 3.61915 10.75 3.86687 9.46172 4.36197C8.30238 4.80874 7.24954 5.49344 6.371 6.37198C5.49246 7.25052 4.80773 8.3034 4.36096 9.46273C3.8658 10.751 3.61812 12.1211 3.63087 13.5012C3.63383 16.1175 4.67444 18.6258 6.52443 20.4757C8.37442 22.3257 10.8826 23.3663 13.4989 23.3693C14.8647 23.3788 16.2197 23.1263 17.4904 22.6256C18.6525 22.167 19.708 21.4745 20.5914 20.5911C21.4748 19.7077 22.1672 18.6522 22.6258 17.4901C23.1267 16.2194 23.3791 14.8645 23.3695 13.4987C23.3662 10.8825 22.3253 8.37429 20.475 6.52454C18.6248 4.67478 16.1164 3.63447 13.5001 3.63185Z" fill="#D0D0DD"/>
<path d="M18.7804 7.89595C16.5988 11.0742 14.1322 14.3627 12.9149 18.0603C11.6035 16.4948 10.3701 14.866 9.05738 13.3017C8.53552 12.7005 7.66542 13.5706 8.18975 14.1693C9.73919 16.0038 11.1646 17.9475 12.7426 19.7659C12.8191 19.8406 12.9136 19.8942 13.0169 19.9215C13.1203 19.9489 13.229 19.9491 13.3324 19.922C13.4358 19.8949 13.5305 19.8415 13.6072 19.7671C13.6839 19.6926 13.7401 19.5995 13.7702 19.497C14.7816 15.4337 17.5335 11.8923 19.8576 8.50828C20.2977 7.86495 19.223 7.24766 18.7804 7.89595Z" fill="#818098"/>
<path d="M19.2913 6.42091C19.6332 6.42068 19.969 6.5127 20.263 6.68722C20.5571 6.86173 20.7986 7.11231 20.9622 7.41257C21.1092 7.69062 21.176 8.00398 21.1555 8.3178C21.1349 8.63163 21.0277 8.93359 20.8457 9.19008C20.5371 9.6388 20.2185 10.095 19.9099 10.5362C17.8683 13.4554 15.7574 16.475 14.9318 19.792V19.8031C14.8226 20.1911 14.5895 20.5328 14.2682 20.776C13.9468 21.0192 13.5548 21.1508 13.1518 21.1506C12.9024 21.1516 12.6557 21.0989 12.4285 20.996C12.2013 20.8931 11.999 20.7425 11.8353 20.5543C10.9565 19.5429 10.1173 18.483 9.30539 17.4554C8.64718 16.6237 7.96669 15.7634 7.27749 14.9478C7.04681 14.6842 6.89755 14.3594 6.84761 14.0127C6.79768 13.666 6.84929 13.3123 6.9962 12.9943C7.13833 12.6724 7.36975 12.3979 7.66304 12.2035C7.95632 12.0091 8.29913 11.9028 8.65096 11.8973C8.90167 11.8989 9.14904 11.9552 9.37575 12.0623C9.60246 12.1693 9.80301 12.3245 9.9636 12.517L9.97722 12.5332C10.6429 13.3277 11.2949 14.1446 11.9258 14.9367L12.5456 15.7126C13.8024 13.1273 15.2963 10.6641 17.008 8.35461C17.267 7.98274 17.536 7.59477 17.7951 7.21795C17.9594 6.97204 18.1821 6.77059 18.4432 6.63153C18.7042 6.49247 18.9955 6.4201 19.2913 6.42091Z" fill="#5F57CB"/>
</g>
<path d="M44.016 9.504H39.088V6.6H52.508V9.504H47.58V22H44.016V9.504ZM58.356 9.988C60.1894 9.988 61.5974 10.428 62.58 11.308C63.5627 12.1733 64.054 13.486 64.054 15.246V22H60.842V20.526C60.1967 21.626 58.994 22.176 57.234 22.176C56.3247 22.176 55.5327 22.022 54.858 21.714C54.198 21.406 53.692 20.9807 53.34 20.438C52.988 19.8953 52.812 19.2793 52.812 18.59C52.812 17.49 53.2227 16.6247 54.044 15.994C54.88 15.3633 56.1634 15.048 57.894 15.048H60.622C60.622 14.3 60.3947 13.728 59.94 13.332C59.4854 12.9213 58.8034 12.716 57.894 12.716C57.2634 12.716 56.64 12.8187 56.024 13.024C55.4227 13.2147 54.9094 13.4787 54.484 13.816L53.252 11.418C53.8974 10.9633 54.6674 10.6113 55.562 10.362C56.4714 10.1127 57.4027 9.988 58.356 9.988ZM58.092 19.866C58.6787 19.866 59.1994 19.734 59.654 19.47C60.1087 19.1913 60.4314 18.788 60.622 18.26V17.05H58.268C56.86 17.05 56.156 17.512 56.156 18.436C56.156 18.876 56.3247 19.228 56.662 19.492C57.014 19.7413 57.4907 19.866 58.092 19.866ZM71.1422 22.176C70.1595 22.176 69.1988 22.0587 68.2602 21.824C67.3215 21.5747 66.5735 21.2667 66.0162 20.9L67.1602 18.436C67.6882 18.7733 68.3262 19.052 69.0742 19.272C69.8222 19.4773 70.5555 19.58 71.2742 19.58C72.7262 19.58 73.4522 19.2207 73.4522 18.502C73.4522 18.1647 73.2542 17.9227 72.8582 17.776C72.4622 17.6293 71.8535 17.5047 71.0322 17.402C70.0642 17.2553 69.2648 17.0867 68.6342 16.896C68.0035 16.7053 67.4535 16.368 66.9842 15.884C66.5295 15.4 66.3022 14.7107 66.3022 13.816C66.3022 13.068 66.5148 12.408 66.9402 11.836C67.3802 11.2493 68.0108 10.7947 68.8322 10.472C69.6682 10.1493 70.6508 9.988 71.7802 9.988C72.6162 9.988 73.4448 10.0833 74.2662 10.274C75.1022 10.45 75.7915 10.6993 76.3342 11.022L75.1902 13.464C74.1488 12.8773 73.0122 12.584 71.7802 12.584C71.0468 12.584 70.4968 12.6867 70.1302 12.892C69.7635 13.0973 69.5802 13.3613 69.5802 13.684C69.5802 14.0507 69.7782 14.3073 70.1742 14.454C70.5702 14.6007 71.2008 14.74 72.0662 14.872C73.0342 15.0333 73.8262 15.2093 74.4422 15.4C75.0582 15.576 75.5935 15.906 76.0482 16.39C76.5028 16.874 76.7302 17.5487 76.7302 18.414C76.7302 19.1473 76.5102 19.8 76.0702 20.372C75.6302 20.944 74.9848 21.3913 74.1342 21.714C73.2982 22.022 72.3008 22.176 71.1422 22.176ZM83.9297 17.358L82.2797 18.986V22H78.8477V5.676H82.2797V14.916L87.2957 10.164H91.3877L86.4597 15.18L91.8277 22H87.6697L83.9297 17.358ZM93.2852 10.164H96.7172V22H93.2852V10.164ZM95.0012 8.514C94.3705 8.514 93.8572 8.33067 93.4612 7.964C93.0652 7.59733 92.8672 7.14267 92.8672 6.6C92.8672 6.05733 93.0652 5.60267 93.4612 5.236C93.8572 4.86933 94.3705 4.686 95.0012 4.686C95.6318 4.686 96.1452 4.862 96.5412 5.214C96.9372 5.566 97.1352 6.006 97.1352 6.534C97.1352 7.106 96.9372 7.58267 96.5412 7.964C96.1452 8.33067 95.6318 8.514 95.0012 8.514ZM99.9024 5.676H103.334V22H99.9024V5.676ZM106.52 5.676H109.952V22H106.52V5.676ZM118.769 22.176C117.522 22.176 116.4 21.9193 115.403 21.406C114.42 20.878 113.65 20.152 113.093 19.228C112.535 18.304 112.257 17.2553 112.257 16.082C112.257 14.9087 112.535 13.86 113.093 12.936C113.65 12.012 114.42 11.2933 115.403 10.78C116.4 10.252 117.522 9.988 118.769 9.988C120.015 9.988 121.13 10.252 122.113 10.78C123.095 11.2933 123.865 12.012 124.423 12.936C124.98 13.86 125.259 14.9087 125.259 16.082C125.259 17.2553 124.98 18.304 124.423 19.228C123.865 20.152 123.095 20.878 122.113 21.406C121.13 21.9193 120.015 22.176 118.769 22.176ZM118.769 19.36C119.649 19.36 120.367 19.0667 120.925 18.48C121.497 17.8787 121.783 17.0793 121.783 16.082C121.783 15.0847 121.497 14.2927 120.925 13.706C120.367 13.1047 119.649 12.804 118.769 12.804C117.889 12.804 117.163 13.1047 116.591 13.706C116.019 14.2927 115.733 15.0847 115.733 16.082C115.733 17.0793 116.019 17.8787 116.591 18.48C117.163 19.0667 117.889 19.36 118.769 19.36Z" fill="white"/>
<defs>
<clipPath id="clip0_60_44">
<rect width="27" height="27" fill="white"/>
</clipPath>
</defs>
</svg>
