<svg width="31" height="31" viewBox="0 0 31 31" fill="none" xmlns="http://www.w3.org/2000/svg">
<ellipse cx="15.409" cy="15.5" rx="15.3333" ry="15.5" fill="#1C1C28" fill-opacity="0.88"/>
<path d="M22.0889 11.5638C22.0996 11.7202 22.0996 11.8766 22.0996 12.033C22.0996 16.8034 18.6315 22.3 12.293 22.3C10.3403 22.3 8.52624 21.7079 7.00031 20.6801C7.27776 20.7136 7.5445 20.7248 7.83263 20.7248C9.4439 20.7248 10.9272 20.155 12.1116 19.1831C10.5964 19.1495 9.32654 18.1106 8.88903 16.6805C9.10246 16.714 9.31587 16.7364 9.53998 16.7364C9.84942 16.7364 10.1589 16.6917 10.447 16.6135C8.86771 16.2783 7.68321 14.826 7.68321 13.072V13.0274C8.14204 13.2955 8.67563 13.4631 9.24114 13.4854C8.31277 12.8374 7.70456 11.7314 7.70456 10.4801C7.70456 9.80983 7.87526 9.19538 8.17407 8.65912C9.87074 10.8488 12.4211 12.2788 15.2808 12.4352C15.2275 12.1671 15.1955 11.8878 15.1955 11.6085C15.1955 9.6199 16.7321 8 18.6422 8C19.6345 8 20.5309 8.4357 21.1605 9.13953C21.9394 8.98313 22.6864 8.68148 23.348 8.26813C23.0919 9.10604 22.5477 9.80987 21.8327 10.2567C22.5264 10.1785 23.1986 9.97741 23.8175 9.69814C23.3481 10.4131 22.7611 11.0499 22.0889 11.5638Z" fill="#A8A8A8"/>
</svg>
