<svg width="62" height="62" viewBox="0 0 62 62" fill="none" xmlns="http://www.w3.org/2000/svg">
<g clip-path="url(#clip0_285_202)">
<path d="M31 59.2446C23.5113 59.2363 16.3316 56.258 11.036 50.963C5.74042 45.668 2.76125 38.4887 2.75221 31C2.58092 27.2451 3.19443 23.4956 4.55344 19.9911C5.91245 16.4865 7.98708 13.3038 10.6451 10.6461C13.3031 7.98832 16.486 5.91393 19.9907 4.55528C23.4954 3.19663 27.2451 2.5836 31 2.75527C38.4881 2.76431 45.6669 5.74297 50.9619 11.0379C56.2568 16.3329 59.2355 23.5118 59.2446 31C59.3728 34.7437 58.7298 38.4738 57.3558 41.9586C55.9817 45.4434 53.906 48.6085 51.2572 51.2573C48.6084 53.9061 45.4433 55.9819 41.9585 57.356C38.4737 58.73 34.7437 59.3728 31 59.2446V59.2446ZM31 5.58454C27.6213 5.42937 24.2472 5.98054 21.0935 7.20292C17.9399 8.4253 15.0758 10.292 12.6843 12.6837C10.2929 15.0755 8.42658 17.9398 7.20456 21.0936C5.98253 24.2473 5.43158 27.6213 5.58713 31C5.59467 37.7375 8.2746 44.1969 13.0387 48.961C17.8029 53.7252 24.2624 56.4049 31 56.4125C34.3691 56.531 37.7265 55.9547 40.8633 54.7196C44.0001 53.4844 46.8491 51.6167 49.2329 49.2329C51.6167 46.8491 53.4841 44.0002 54.7193 40.8634C55.9544 37.7266 56.5309 34.3691 56.4124 31C56.4057 24.262 53.7261 17.8018 48.9619 13.037C44.1976 8.27227 37.738 5.59208 31 5.58454V5.58454Z" fill="#818098"/>
<path d="M31.0001 62.0001C22.7805 61.9933 14.8997 58.7251 9.08756 52.9129C3.2754 47.1007 0.00688863 39.2197 0.000104578 31C-0.0298192 26.7484 0.74287 22.5294 2.27735 18.5642C3.7094 14.8632 5.89857 11.502 8.70466 8.69591C11.5107 5.88982 14.8718 3.70066 18.5729 2.26861C22.5381 0.734322 26.7572 -0.0381862 31.0088 -0.00846698C35.1297 -0.0874467 39.2253 0.656016 43.0555 2.17844C46.8858 3.70087 50.3737 5.97165 53.316 8.85809C56.2583 11.7445 58.5956 15.1887 60.1912 18.989C61.7867 22.7894 62.6085 26.8698 62.6085 30.9915C62.6085 35.1132 61.7867 39.1936 60.1912 42.994C58.5956 46.7943 56.2583 50.2385 53.316 53.1249C50.3737 56.0114 46.8858 58.2822 43.0555 59.8046C39.2253 61.327 35.1297 62.0705 31.0088 61.9915L31.0001 62.0001ZM31.0001 8.33994C27.831 8.31079 24.685 8.87962 21.7267 10.0165C19.0646 11.0424 16.6469 12.6147 14.6295 14.6321C12.6121 16.6495 11.0398 19.0672 10.0139 21.7294C8.87686 24.6876 8.3081 27.8338 8.33739 31.0029C8.34417 37.0106 10.7337 42.7704 14.9819 47.0185C19.23 51.2666 24.9896 53.6562 30.9973 53.663C34.1335 53.6847 37.245 53.1049 40.1629 51.9551C42.8315 50.9021 45.2552 49.312 47.2838 47.2834C49.3123 45.2549 50.9023 42.8311 51.9554 40.1625C53.1056 37.2448 53.6853 34.1335 53.6631 30.9972C53.6556 24.9895 51.2652 19.23 47.0166 14.9824C42.7679 10.7348 37.0078 8.34596 31.0001 8.33994V8.33994Z" fill="#D0D0DD"/>
<path d="M43.1253 18.1315C38.1157 25.4296 32.4516 32.9811 29.6564 41.4719C26.6449 37.8769 23.8126 34.1368 20.7983 30.5447C19.6 29.1642 17.6019 31.1622 18.806 32.537C22.3639 36.7496 25.6372 41.2128 29.2607 45.3885C29.4364 45.5599 29.6533 45.683 29.8906 45.7458C30.1279 45.8086 30.3776 45.809 30.6151 45.7469C30.8526 45.6847 31.0699 45.5621 31.246 45.3911C31.4222 45.2201 31.5511 45.0064 31.6203 44.7709C33.9429 35.4404 40.2619 27.3082 45.5989 19.5376C46.6094 18.0603 44.1415 16.6428 43.1253 18.1315Z" fill="#818098"/>
<path d="M44.2983 14.7444C45.0835 14.7439 45.8544 14.9552 46.5296 15.3559C47.2049 15.7567 47.7595 16.3321 48.1353 17.0216C48.4727 17.6601 48.6262 18.3796 48.579 19.1002C48.5317 19.8209 48.2856 20.5143 47.8677 21.1033C47.159 22.1336 46.4274 23.1811 45.7187 24.1944C41.0307 30.8977 36.1833 37.8315 34.2876 45.4484V45.474C34.0368 46.3648 33.5016 47.1494 32.7637 47.708C32.0258 48.2665 31.1256 48.5686 30.2001 48.5681C29.6275 48.5705 29.0609 48.4494 28.5392 48.2132C28.0176 47.9769 27.5531 47.6309 27.1772 47.1989C25.1591 44.8763 23.2321 42.4426 21.3677 40.083C19.8563 38.173 18.2936 36.1976 16.711 34.3247C16.1813 33.7194 15.8386 32.9735 15.7239 32.1774C15.6092 31.3813 15.7278 30.569 16.0651 29.8388C16.3915 29.0996 16.9229 28.4694 17.5964 28.023C18.2698 27.5765 19.057 27.3325 19.8649 27.3197C20.4406 27.3235 21.0087 27.4528 21.5293 27.6986C22.0499 27.9444 22.5104 28.3008 22.8791 28.7429L22.9104 28.7799C24.4389 30.6045 25.9362 32.4803 27.385 34.2992L28.8082 36.0809C31.6942 30.1442 35.1245 24.488 39.0551 19.1848C39.65 18.3308 40.2677 17.4399 40.8626 16.5746C41.24 16.01 41.7513 15.5474 42.3508 15.2281C42.9502 14.9087 43.6191 14.7426 44.2983 14.7444V14.7444Z" fill="#6C63FF"/>
</g>
<defs>
<clipPath id="clip0_285_202">
<rect width="62" height="62" fill="white"/>
</clipPath>
</defs>
</svg>
